<svg width="676" height="676" viewBox="0 0 676 676" fill="none" xmlns="http://www.w3.org/2000/svg">
<rect x="16" y="16" width="644" height="644" rx="59" stroke="#7F54B3" stroke-width="32"/>
<path d="M474.333 409.333C512.532 409.333 543.5 378.366 543.5 340.167C543.5 301.967 512.532 271 474.333 271C436.134 271 405.167 301.967 405.167 340.167C405.167 378.366 436.134 409.333 474.333 409.333Z" fill="#7F54B3"/>
<path fill-rule="evenodd" clip-rule="evenodd" d="M552.146 508.76C525.883 508.76 504.594 530.05 504.594 556.312C504.594 564.965 506.897 573.07 510.935 580.057L575.891 515.101C568.903 511.064 560.799 508.76 552.146 508.76ZM593.985 533.688L529.521 598.151C536.248 601.798 543.951 603.865 552.146 603.865C578.408 603.865 599.698 582.575 599.698 556.312C599.698 548.118 597.632 540.415 593.985 533.688ZM478.656 556.312C478.656 515.725 511.559 482.823 552.146 482.823C572.706 482.823 591.315 491.284 604.638 504.88C617.614 518.122 625.635 536.294 625.635 556.312C625.635 596.899 592.733 629.802 552.146 629.802C532.127 629.802 513.955 621.78 500.714 608.805C487.117 595.482 478.656 576.872 478.656 556.312Z" fill="#7F54B3"/>
<path opacity="0.4" d="M578.019 487.511C569.97 484.481 561.25 482.823 552.146 482.823C511.559 482.823 478.656 515.725 478.656 556.312C478.656 576.872 487.117 595.482 500.713 608.805C503.359 611.397 506.2 613.792 509.216 615.964C498.694 616.536 487.103 616.833 474.333 616.833C336 616.833 336 581.996 336 539.021C336 496.046 397.934 461.208 474.333 461.208C515.615 461.208 552.673 471.379 578.019 487.511Z" fill="#7F54B3"/>
<path d="M74.8407 596.109C61.783 596.109 51.0052 585.538 51.0052 572.273V386.357C51.0052 373.299 61.5757 362.521 74.8407 362.521H249.772C262.83 362.521 273.608 373.092 273.608 386.357V474.237L272.779 474.03C269.255 472.994 265.939 472.579 262.208 472.579H262.001L261.794 471.957H261.172V386.357C261.172 380.346 255.783 374.957 249.772 374.957H74.8407C68.83 374.957 63.4411 380.346 63.4411 386.357V572.273C63.4411 578.284 68.83 583.673 74.8407 583.673H166.659L166.866 583.88C169.146 586.989 167.903 589.269 167.074 590.927C166.244 592.378 165.83 593.414 167.281 594.865L168.524 596.109H74.8407Z" fill="#7F54B3"/>
<path d="M88.3128 408.12C86.0329 408.12 84.1675 405.218 84.1675 401.694C84.1675 398.171 86.0329 395.269 88.3128 395.269H158.783C161.063 395.269 162.928 398.171 162.928 401.694C162.928 405.218 161.063 408.12 158.783 408.12H88.3128Z" fill="#7F54B3"/>
<path d="M158.783 395.891H88.3128C86.4475 395.891 84.7893 398.378 84.7893 401.694C84.7893 405.011 86.4475 407.498 88.3128 407.498H158.783C160.648 407.498 162.306 405.011 162.306 401.694C162.306 398.378 160.856 395.891 158.783 395.891ZM87.4838 441.282C85.6184 441.282 84.1675 438.588 84.1675 434.857C84.1675 431.126 85.6184 428.432 87.4838 428.432H138.056C139.922 428.432 141.373 431.126 141.373 434.857C141.373 438.588 139.922 441.282 138.056 441.282H87.4838Z" fill="#7F54B3"/>
<path d="M138.056 429.053H87.4838C86.033 429.053 84.9966 431.541 84.9966 434.857C84.9966 438.173 86.033 440.66 87.4838 440.66H138.056C139.507 440.66 140.544 438.173 140.544 434.857C140.544 431.541 139.3 429.053 138.056 429.053ZM242.518 629.479C235.264 629.479 227.388 629.064 217.232 628.235C202.516 626.991 189.044 620.152 175.986 607.509L117.123 549.889C103.443 536.624 102.821 519.214 115.05 505.949C120.232 500.56 128.315 497.244 137.02 497.244C145.725 497.244 153.601 500.56 158.576 506.363C158.783 506.571 159.197 506.985 160.027 507.4C160.234 507.607 160.648 507.814 160.856 508.021V480.248V466.568C160.856 455.998 160.856 445.22 161.063 434.65C161.27 418.897 173.499 406.876 189.665 406.876H189.873C205.418 406.876 217.232 418.276 218.061 433.821C218.268 437.344 218.268 441.075 218.061 444.806V449.573H221.17C231.947 449.573 240.238 453.303 246.249 461.18C246.456 461.594 247.7 462.009 249.358 462.009C249.98 462.009 250.601 462.009 251.016 461.801C252.881 461.594 254.747 461.387 256.405 461.387C264.695 461.387 271.95 464.703 278.168 471.543C279.204 472.579 281.484 473.408 283.556 473.408H284.385C285.836 473.201 287.494 472.994 288.945 472.994C304.49 472.994 316.926 483.979 317.133 498.28C317.755 524.603 318.17 550.511 315.268 576.212C311.744 607.301 295.163 623.882 262.83 628.028C256.819 629.064 249.98 629.479 242.518 629.479ZM135.984 509.058C131.631 509.058 127.486 510.716 124.377 513.618C120.646 517.348 118.574 521.701 118.574 526.468C118.574 531.442 120.853 536.417 124.999 540.562L132.875 548.438C150.078 565.434 167.903 582.844 185.727 600.047C194.433 608.338 204.381 613.726 215.366 615.799C223.864 617.457 232.362 618.286 240.653 618.286C248.114 618.286 255.576 617.665 262.83 616.214C289.153 611.447 301.174 598.803 303.661 574.346C305.941 550.925 305.734 526.882 305.319 503.669V499.938C305.112 491.44 299.101 485.637 290.603 485.637C288.324 485.637 286.251 486.051 283.971 486.88V519.214C283.971 522.115 283.971 527.712 278.168 527.712H277.96C276.095 527.712 274.644 527.297 273.815 526.261C272.157 524.603 271.95 521.494 271.95 519.006V517.763C271.95 508.229 272.157 498.487 271.95 488.746C271.742 480.248 265.732 474.237 257.441 474.237C255.368 474.237 253.296 474.652 251.43 475.274V508.85C251.43 511.752 250.809 514.032 249.358 515.483C248.321 516.519 246.871 517.141 245.005 517.141H244.798C239.202 516.934 239.202 511.13 239.202 509.058V495.378V477.968C239.202 474.03 237.544 469.885 234.435 466.776C231.533 463.874 227.595 462.216 223.657 462.216C221.999 462.216 220.133 462.423 218.475 463.045V477.968C218.475 485.015 218.475 492.477 218.061 499.731C217.853 501.596 216.195 503.047 214.537 504.498C213.915 505.12 213.086 505.741 212.465 506.363L211.843 506.985L211.428 505.949C211.014 505.327 210.392 504.705 209.77 504.291C208.527 502.84 207.076 501.389 206.247 499.731C205.625 498.487 205.832 497.036 205.832 495.793V494.135V476.103C205.832 462.838 205.832 449.158 205.625 435.686C205.625 425.737 199.2 419.105 189.873 418.897C179.717 418.897 172.877 426.152 172.877 436.722V534.344L170.183 536.002L169.975 535.588C168.11 533.515 166.037 531.442 164.172 529.37C159.819 524.81 155.259 519.835 150.7 515.276C146.554 511.338 141.373 509.058 135.984 509.058Z" fill="#7F54B3"/>
<g clip-path="url(#clip0_2001_19)">
<path d="M175.216 47H501.624C522.28 47 539.003 63.7451 539.003 84.4322V209.204C539.003 229.889 522.282 246.636 501.624 246.636H384.571L400.638 286.037L329.979 246.636H175.382C154.726 246.636 138.003 229.891 138.003 209.204V84.4322C137.839 63.9098 154.56 47 175.216 47Z" fill="#7F54B3"/>
<path d="M160.835 81.1177C163.117 78.0162 166.54 76.3837 171.105 76.0573C179.418 75.4043 184.145 79.3221 185.286 87.8105C190.34 121.928 195.882 150.821 201.751 174.491L237.449 106.421C240.709 100.218 244.785 96.9528 249.675 96.6264C256.847 96.1366 261.248 100.707 263.042 110.339C267.117 132.05 272.333 150.495 278.527 166.166C282.766 124.702 289.938 94.8311 300.045 76.384C302.49 71.8133 306.076 69.528 310.804 69.2014C314.553 68.8749 317.976 70.0176 321.073 72.4662C324.17 74.9148 325.8 78.0163 326.126 81.7708C326.289 84.7092 325.8 87.1577 324.496 89.6063C318.139 101.36 312.923 121.112 308.685 148.535C304.61 175.144 303.143 195.875 304.121 210.729C304.447 214.81 303.795 218.402 302.165 221.503C300.208 225.094 297.274 227.053 293.525 227.38C289.287 227.706 284.886 225.747 280.648 221.34C265.488 205.832 253.425 182.653 244.623 151.8C234.028 172.694 226.204 188.366 221.151 198.813C211.533 217.258 203.383 226.727 196.536 227.216C192.135 227.543 188.386 223.788 185.126 215.952C176.812 194.567 167.847 153.269 158.229 92.0544C157.577 87.8102 158.555 84.0557 160.837 81.1174L160.835 81.1177ZM511.146 106.746C505.278 96.4618 496.638 90.2581 485.065 87.8094C481.968 87.1565 479.034 86.83 476.263 86.83C460.614 86.83 447.9 94.992 437.957 111.316C429.48 125.192 425.242 140.537 425.242 157.349C425.242 169.919 427.85 180.692 433.066 189.671C438.935 199.955 447.574 206.159 459.147 208.607C462.244 209.26 465.178 209.587 467.949 209.587C483.761 209.587 496.475 201.425 506.256 185.1C514.732 171.062 518.971 155.717 518.971 138.904C519.134 126.172 516.362 115.562 511.146 106.746ZM490.607 151.963C488.325 162.737 484.25 170.735 478.219 176.123C473.492 180.367 469.091 182.163 465.015 181.347C461.103 180.531 457.843 177.103 455.398 170.736C453.442 165.676 452.464 160.616 452.464 155.882C452.464 151.801 452.79 147.72 453.605 143.965C455.072 137.272 457.843 130.743 462.244 124.539C467.623 116.541 473.329 113.276 479.197 114.419C483.109 115.235 486.37 118.663 488.815 125.029C490.771 130.089 491.749 135.15 491.749 139.884C491.749 144.128 491.423 148.209 490.607 151.963ZM409.103 106.746C403.234 96.4618 394.432 90.2581 383.022 87.8094C379.925 87.1565 376.991 86.83 374.22 86.83C358.571 86.83 345.857 94.992 335.913 111.316C327.437 125.192 323.198 140.537 323.198 157.349C323.198 169.919 325.806 180.692 331.023 189.671C336.891 199.955 345.53 206.159 357.103 208.607C360.201 209.26 363.135 209.587 365.906 209.587C381.717 209.587 394.432 201.425 404.212 185.1C412.689 171.062 416.927 155.717 416.927 138.904C416.927 126.172 414.319 115.562 409.103 106.746ZM388.401 151.963C386.119 162.737 382.044 170.735 376.012 176.123C371.285 180.367 366.884 182.163 362.809 181.347C358.896 180.531 355.636 177.103 353.191 170.736C351.235 165.676 350.257 160.616 350.257 155.882C350.257 151.801 350.583 147.72 351.398 143.965C352.865 137.272 355.636 130.743 360.038 124.539C365.417 116.541 371.122 113.276 376.991 114.419C380.903 115.235 384.163 118.663 386.608 125.029C388.564 130.089 389.542 135.15 389.542 139.884C389.705 144.128 389.216 148.209 388.401 151.963Z" fill="white"/>
</g>
<defs>
<clipPath id="clip0_2001_19">
<rect width="401" height="240" fill="white" transform="translate(138 47)"/>
</clipPath>
</defs>
</svg>
